<svg width="375" height="113" viewBox="0 0 375 113" fill="none" xmlns="http://www.w3.org/2000/svg">
<path d="M304.643 727.799C302.525 720.024 300.384 712.472 298.233 705.122C296.081 697.771 293.915 690.617 291.737 683.654C289.56 676.686 287.371 669.898 285.171 663.284C282.968 656.667 280.742 650.22 278.512 643.919C276.286 637.622 274.049 631.47 271.797 625.455C269.541 619.444 267.274 613.571 265 607.817C262.722 602.067 260.433 596.443 258.133 590.927C255.832 585.408 253.524 580.004 251.202 574.696C248.879 569.389 246.538 564.186 244.189 559.068C241.84 553.951 239.484 548.922 237.109 543.976C234.738 539.026 232.341 534.162 229.944 529.364C227.543 524.567 225.127 519.84 222.696 515.173C220.269 510.509 217.835 505.901 215.375 501.353C212.91 496.801 210.435 492.305 207.941 487.854C205.451 483.403 202.95 479.004 200.418 474.638C197.887 470.272 195.334 465.943 192.762 461.648C190.193 457.353 187.61 453.092 184.997 448.856C182.388 444.617 179.745 440.404 177.087 436.21C174.433 432.015 171.749 427.835 169.039 423.671C166.333 419.506 163.594 415.356 160.828 411.206C158.062 407.056 155.267 402.914 152.438 398.771C149.613 394.625 146.758 390.479 143.866 386.325C140.97 382.176 138.036 378.015 135.07 373.839C132.103 369.663 129.103 365.479 126.054 361.27C123.01 357.06 119.92 352.836 116.79 348.578C113.659 344.324 110.492 340.04 107.268 335.723C104.041 331.406 100.773 327.055 97.4523 322.663C94.1283 318.271 90.741 313.831 87.3091 309.35C83.8771 304.865 80.393 300.339 76.842 295.754C73.2909 291.165 69.6766 286.513 65.9989 281.801C62.3176 277.092 58.5767 272.321 54.7613 267.468C50.9497 262.618 47.0711 257.694 43.1105 252.685C39.1538 247.679 35.1076 242.583 30.9871 237.395C26.8702 232.211 22.6677 226.929 18.3834 221.544C14.0953 216.154 9.72903 210.668 5.25855 205.06C0.791799 199.451 -3.76802 193.723 -8.43205 187.865C-13.0961 182.006 -17.8643 176.022 -22.7331 169.892C-27.6056 163.758 -32.5935 157.483 -37.6893 151.048C-42.7851 144.613 -47.9889 138.014 -53.3229 131.24C-58.6569 124.47 -64.1176 117.518 -69.7084 110.372" stroke="#E9F1FF" stroke-width="0.377333" stroke-miterlimit="10"/>
<path d="M317.049 723.708C315.125 715.869 313.156 708.254 311.175 700.844C309.195 693.434 307.181 686.225 305.145 679.205C303.109 672.186 301.051 665.356 298.966 658.694C296.878 652.028 294.764 645.526 292.627 639.184C290.494 632.842 288.339 626.649 286.161 620.597C283.984 614.545 281.784 608.635 279.569 602.848C277.351 597.06 275.11 591.395 272.854 585.846C270.599 580.297 268.317 574.855 266.024 569.518C263.731 564.181 261.419 558.948 259.089 553.805C256.759 548.657 254.407 543.603 252.039 538.63C249.672 533.658 247.278 528.76 244.87 523.94C242.465 519.117 240.042 514.368 237.6 509.682C235.159 504.996 232.706 500.366 230.223 495.799C227.74 491.229 225.242 486.718 222.719 482.248C220.195 477.778 217.653 473.36 215.088 468.98C212.527 464.595 209.944 460.256 207.331 455.946C204.721 451.632 202.086 447.352 199.428 443.098C196.771 438.847 194.087 434.623 191.377 430.414C188.671 426.204 185.942 422.017 183.177 417.837C180.411 413.662 177.616 409.497 174.79 405.336C171.965 401.175 169.11 397.029 166.218 392.871C163.329 388.718 160.415 384.56 157.456 380.399C154.496 376.238 151.496 372.07 148.466 367.883C145.436 363.699 142.358 359.508 139.242 355.292C136.131 351.075 132.974 346.836 129.769 342.574C126.568 338.309 123.322 334.017 120.024 329.693C116.73 325.368 113.391 321.013 109.993 316.614C106.594 312.215 103.14 307.771 99.6336 303.282C96.1234 298.794 92.5612 294.253 88.9394 289.66C85.3139 285.067 81.6325 280.411 77.8805 275.692C74.1284 270.973 70.3205 266.198 66.4344 261.341C62.5483 256.484 58.5915 251.552 54.5603 246.539C50.5291 241.525 46.4271 236.426 42.2432 231.231C38.0593 226.039 33.7899 220.75 29.4385 215.357C25.0872 209.964 20.6613 204.463 16.135 198.847C11.6087 193.234 6.98564 187.506 2.27321 181.641C-2.44293 175.779 -7.25585 169.775 -12.1693 163.638C-17.0864 157.501 -22.1041 151.214 -27.2334 144.768C-32.3627 138.322 -37.6037 131.719 -42.9638 124.934C-48.3202 118.149 -53.792 111.19 -59.394 104.032" stroke="#E9F1FF" stroke-width="0.377333" stroke-miterlimit="10"/>
<path d="M329.369 719.354C327.646 711.452 325.878 703.785 324.065 696.323C322.252 688.857 320.395 681.603 318.5 674.535C316.605 667.467 314.677 660.582 312.704 653.875C310.735 647.164 308.733 640.629 306.697 634.246C304.661 627.863 302.598 621.64 300.495 615.551C298.396 609.466 296.27 603.511 294.112 597.693C291.953 591.872 289.764 586.178 287.553 580.595C285.338 575.016 283.101 569.549 280.838 564.189C278.575 558.826 276.282 553.563 273.97 548.393C271.659 543.228 269.314 538.143 266.954 533.149C264.597 528.15 262.215 523.241 259.807 518.399C257.402 513.557 254.972 508.789 252.519 504.085C250.062 499.38 247.587 494.735 245.085 490.15C242.588 485.565 240.064 481.035 237.514 476.554C234.968 472.069 232.392 467.636 229.798 463.241C227.203 458.849 224.579 454.487 221.933 450.166C219.282 445.845 216.61 441.561 213.907 437.3C211.209 433.034 208.476 428.795 205.718 424.578C202.96 420.361 200.176 416.167 197.358 411.98C194.54 407.796 191.689 403.62 188.804 399.456C185.923 395.287 183.009 391.126 180.06 386.961C177.112 382.8 174.123 378.647 171.101 374.478C168.082 370.31 165.03 366.134 161.929 361.947C158.829 357.76 155.691 353.554 152.508 349.333C149.329 345.109 146.102 340.874 142.83 336.605C139.558 332.339 136.238 328.044 132.873 323.719C129.508 319.391 126.091 315.025 122.622 310.622C119.153 306.219 115.62 301.775 112.043 297.283C108.466 292.791 104.837 288.25 101.14 283.654C97.4405 279.053 93.6921 274.405 89.8693 269.685C86.0502 264.966 82.1567 260.184 78.1999 255.323C74.2469 250.466 70.2268 245.531 66.1285 240.514C62.034 235.496 57.8613 230.394 53.6105 225.198C49.3596 220.002 45.038 214.717 40.6308 209.321C36.2199 203.928 31.7159 198.423 27.1375 192.803C22.5554 187.187 17.8913 181.451 13.1268 175.582C8.36226 169.716 3.50095 163.717 -1.45714 157.572C-6.41524 151.427 -11.4664 145.141 -16.6292 138.691C-21.792 132.241 -27.0591 125.627 -32.4378 118.838C-37.8202 112.05 -43.3069 105.082 -48.9164 97.9178" stroke="#E9F1FF" stroke-width="0.377333" stroke-miterlimit="10"/>
<path d="M341.641 714.727C340.122 706.773 338.544 699.058 336.906 691.543C335.264 684.029 333.563 676.723 331.814 669.61C330.068 662.498 328.263 655.586 326.416 648.838C324.57 642.091 322.683 635.514 320.747 629.094C318.808 622.677 316.824 616.414 314.803 610.295C312.782 604.176 310.719 598.195 308.628 592.344C306.532 586.494 304.395 580.777 302.229 575.172C300.063 569.566 297.866 564.08 295.637 558.695C293.403 553.306 291.151 548.024 288.855 542.836C286.562 537.648 284.239 532.553 281.887 527.539C279.534 522.526 277.156 517.591 274.747 512.734C272.343 507.877 269.901 503.094 267.433 498.375C264.969 493.659 262.479 489.007 259.962 484.407C257.442 479.81 254.896 475.269 252.324 470.777C249.748 466.285 247.15 461.837 244.522 457.434C241.894 453.031 239.237 448.669 236.553 444.341C233.865 440.008 231.141 435.71 228.397 431.441C225.654 427.172 222.888 422.933 220.082 418.708C217.275 414.484 214.439 410.278 211.573 406.087C208.703 401.897 205.799 397.724 202.862 393.552C199.925 389.38 196.955 385.219 193.947 381.058C190.944 376.893 187.895 372.728 184.813 368.56C181.731 364.391 178.608 360.215 175.448 356.025C172.284 351.838 169.079 347.632 165.829 343.407C162.58 339.187 159.289 334.948 155.947 330.679C152.608 326.413 149.228 322.122 145.792 317.797C142.356 313.469 138.861 309.107 135.321 304.704C131.781 300.301 128.197 295.861 124.549 291.368C120.897 286.876 117.194 282.339 113.427 277.743C109.664 273.146 105.83 268.498 101.94 263.778C98.0537 259.063 94.1007 254.273 90.0769 249.416C86.0531 244.562 81.9586 239.631 77.797 234.617C73.6355 229.604 69.4033 224.509 65.0929 219.313C60.7825 214.121 56.3939 208.832 51.9271 203.439C47.4604 198.046 42.9154 192.545 38.2812 186.925C33.6469 181.309 28.9122 175.578 24.0993 169.708C19.2863 163.842 14.3952 157.847 9.39618 151.705C4.39714 145.564 -0.694936 139.274 -5.88381 132.824C-11.0764 126.374 -16.3732 119.764 -21.7705 112.976C-27.1679 106.187 -32.6732 99.2161 -38.2864 92.0515" stroke="#E9F1FF" stroke-width="0.377333" stroke-miterlimit="10"/>
<path d="M353.854 709.827C352.57 702.019 351.211 694.437 349.782 687.053C348.353 679.673 346.86 672.493 345.304 665.496C343.748 658.503 342.125 651.699 340.447 645.059C338.772 638.416 337.044 631.936 335.265 625.616C333.482 619.297 331.64 613.129 329.76 607.096C327.88 601.067 325.967 595.175 323.998 589.41C322.025 583.641 320.004 577.999 317.953 572.472C315.906 566.941 313.814 561.53 311.688 556.218C309.563 550.904 307.396 545.693 305.197 540.572C302.997 535.454 300.76 530.43 298.493 525.483C296.226 520.541 293.925 515.68 291.595 510.89C289.265 506.104 286.905 501.381 284.512 496.728C282.122 492.08 279.684 487.494 277.231 482.965C274.778 478.435 272.295 473.965 269.783 469.54C267.27 465.118 264.739 460.745 262.163 456.413C259.591 452.081 256.989 447.789 254.357 443.535C251.722 439.281 249.064 435.061 246.373 430.87C243.682 426.679 240.953 422.522 238.203 418.379C235.448 414.241 232.671 410.117 229.854 406.015C227.04 401.914 224.188 397.831 221.307 393.755C218.422 389.676 215.497 385.612 212.545 381.548C209.593 377.483 206.604 373.427 203.582 369.366C200.555 365.306 197.499 361.241 194.399 357.17C191.298 353.094 188.149 349.011 184.97 344.913C181.788 340.819 178.568 336.71 175.3 332.579C172.031 328.448 168.719 324.298 165.361 320.118C162.007 315.935 158.609 311.733 155.155 307.49C151.7 303.251 148.201 298.978 144.65 294.665C141.099 290.347 137.496 285.989 133.837 281.582C130.174 277.179 126.467 272.735 122.692 268.228C118.922 263.717 115.08 259.154 111.187 254.524C107.293 249.898 103.344 245.205 99.3277 240.441C95.3113 235.677 91.2354 230.842 87.085 225.922C82.9347 221.005 78.7136 215.999 74.4255 210.908C70.1337 205.816 65.7638 200.632 61.3268 195.35C56.8898 190.065 52.3858 184.676 47.7925 179.175C43.2029 173.674 38.524 168.062 33.7707 162.319C29.0136 156.576 24.1746 150.703 19.2463 144.696C14.3217 138.689 9.31518 132.54 4.21192 126.236C-0.891347 119.934 -6.08396 113.477 -11.3733 106.848C-16.6627 100.22 -22.0451 93.4199 -27.5281 86.4339" stroke="#E9F1FF" stroke-width="0.377333" stroke-miterlimit="10"/>
<path d="M365.962 704.646C364.879 696.797 363.706 689.167 362.452 681.75C361.198 674.332 359.854 667.126 358.443 660.1C357.036 653.073 355.555 646.228 354.002 639.559C352.45 632.889 350.824 626.387 349.141 620.041C347.462 613.692 345.724 607.498 343.93 601.447C342.136 595.395 340.286 589.488 338.384 583.701C336.482 577.917 334.524 572.256 332.525 566.711C330.522 561.165 328.479 555.738 326.387 550.412C324.298 545.086 322.158 539.868 319.984 534.736C317.811 529.607 315.596 524.568 313.34 519.614C311.088 514.66 308.81 509.788 306.484 504.991C304.157 500.197 301.786 495.478 299.389 490.822C296.995 486.166 294.554 481.569 292.089 477.036C289.625 472.503 287.131 468.029 284.6 463.604C282.065 459.178 279.497 454.798 276.899 450.466C274.301 446.133 271.68 441.842 269.015 437.588C266.35 433.334 263.655 429.117 260.923 424.926C258.194 420.735 255.443 416.578 252.648 412.439C249.853 408.301 247.016 404.184 244.154 400.083C241.295 395.985 238.395 391.902 235.458 387.827C232.525 383.755 229.562 379.698 226.558 375.641C223.551 371.584 220.506 367.528 217.428 363.474C214.349 359.418 211.241 355.357 208.081 351.293C204.921 347.229 201.72 343.153 198.478 339.063C195.235 334.972 191.941 330.867 188.61 326.743C185.282 322.62 181.913 318.481 178.493 314.312C175.072 310.14 171.595 305.942 168.081 301.714C164.567 297.482 161.009 293.213 157.395 288.907C153.776 284.604 150.106 280.254 146.38 275.858C142.654 271.463 138.876 267.022 135.038 262.523C131.201 258.027 127.304 253.475 123.347 248.86C119.394 244.241 115.377 239.562 111.298 234.81C107.218 230.053 103.075 225.222 98.8652 220.317C94.6553 215.408 90.3747 210.42 86.027 205.34C81.6794 200.26 77.2573 195.086 72.7682 189.812C68.2792 184.538 63.7156 179.164 59.0739 173.671C54.4322 168.181 49.7272 162.576 44.9292 156.844C40.1312 151.116 35.2401 145.262 30.282 139.262C25.3239 133.266 20.2839 127.125 15.1546 120.831C10.0252 114.538 4.81406 108.095 -0.49021 101.474C-5.79448 94.8565 -11.1806 88.0641 -16.6673 81.0856" stroke="#E9F1FF" stroke-width="0.377333" stroke-miterlimit="10"/>
<path d="M377.987 699.174C377.109 691.287 376.115 683.631 375.036 676.184C373.956 668.733 372.784 661.49 371.522 654.433C370.26 647.38 368.909 640.514 367.479 633.822C366.05 627.13 364.55 620.605 362.972 614.241C361.394 607.873 359.748 601.668 358.036 595.598C356.324 589.531 354.548 583.599 352.713 577.8C350.878 572.001 348.983 566.329 347.037 560.773C345.086 555.22 343.087 549.782 341.036 544.445C338.985 539.111 336.89 533.878 334.742 528.742C332.594 523.606 330.394 518.563 328.157 513.605C325.924 508.648 323.646 503.776 321.327 498.975C319.008 494.174 316.644 489.454 314.243 484.795C311.842 480.138 309.404 475.546 306.929 471.012C304.454 466.479 301.937 461.998 299.388 457.577C296.834 453.151 294.247 448.782 291.627 444.453C289.006 440.121 286.348 435.837 283.653 431.587C280.962 427.333 278.237 423.12 275.476 418.932C272.714 414.749 269.907 410.595 267.071 406.464C264.234 402.329 261.372 398.22 258.465 394.126C255.554 390.032 252.617 385.96 249.639 381.896C246.658 377.832 243.639 373.783 240.583 369.733C237.527 365.684 234.433 361.638 231.299 357.592C228.165 353.547 224.986 349.497 221.77 345.441C218.554 341.384 215.286 337.319 211.984 333.244C208.686 329.165 205.347 325.082 201.956 320.969C198.565 316.86 195.134 312.725 191.649 308.568C188.169 304.411 184.64 300.216 181.06 295.999C177.479 291.782 173.846 287.532 170.164 283.241C166.483 278.949 162.75 274.613 158.96 270.233C155.175 265.856 151.33 261.427 147.432 256.942C143.531 252.461 139.575 247.92 135.558 243.32C131.542 238.716 127.458 234.056 123.319 229.318C119.18 224.58 114.966 219.764 110.697 214.874C106.431 209.98 102.095 205.011 97.6913 199.945C93.2915 194.88 88.8099 189.718 84.2687 184.459C79.7238 179.2 75.123 173.844 70.4366 168.369C65.7503 162.894 60.982 157.308 56.143 151.591C51.3041 145.874 46.3981 140.035 41.4065 134.054C36.4149 128.073 31.3339 121.958 26.1823 115.679C21.0344 109.404 15.8008 102.965 10.4891 96.3585C5.17367 89.756 -0.231112 82.9859 -5.71777 76.0223" stroke="#E9F1FF" stroke-width="0.377333" stroke-miterlimit="10"/>
<path d="M389.907 693.42C389.229 685.504 388.433 677.818 387.528 670.341C386.623 662.864 385.607 655.599 384.494 648.524C383.381 641.448 382.164 634.559 380.861 627.849C379.562 621.138 378.178 614.599 376.704 608.216C375.233 601.837 373.681 595.614 372.054 589.532C370.432 583.451 368.734 577.514 366.97 571.708C365.202 565.898 363.374 560.215 361.479 554.654C359.585 549.094 357.631 543.653 355.62 538.312C353.61 532.975 351.533 527.742 349.415 522.602C347.297 517.466 345.131 512.422 342.909 507.465C340.687 502.507 338.427 497.632 336.116 492.834C333.804 488.037 331.448 483.314 329.043 478.661C326.642 474.005 324.193 469.416 321.707 464.891C319.22 460.361 316.693 455.891 314.128 451.473C311.56 447.055 308.962 442.693 306.315 438.369C303.668 434.048 300.977 429.764 298.256 425.524C295.532 421.282 292.777 417.076 289.978 412.9C287.179 408.728 284.346 404.585 281.472 400.461C278.603 396.341 275.695 392.244 272.747 388.161C269.799 384.082 266.803 380.021 263.773 375.968C260.747 371.915 257.691 367.873 254.586 363.835C251.478 359.8 248.318 355.777 245.128 351.742C241.942 347.711 238.722 343.673 235.45 339.635C232.178 335.593 228.858 331.544 225.5 327.479C222.143 323.419 218.748 319.343 215.297 315.249C211.847 311.155 208.348 307.039 204.801 302.897C201.257 298.754 197.672 294.589 194.032 290.387C190.388 286.185 186.688 281.95 182.943 277.677C179.202 273.401 175.409 269.091 171.557 264.729C167.704 260.367 163.796 255.956 159.832 251.494C155.871 247.028 151.847 242.509 147.768 237.924C143.692 233.342 139.556 228.701 135.354 223.982C131.151 219.266 126.889 214.469 122.564 209.601C118.239 204.729 113.85 199.779 109.395 194.735C104.935 189.692 100.409 184.552 95.8156 179.316C91.226 174.075 86.5657 168.746 81.8309 163.289C77.0999 157.837 72.2981 152.265 67.4219 146.571C62.5495 140.88 57.5988 135.059 52.5737 129.097C47.5486 123.134 42.4454 117.034 37.2751 110.778C32.1011 104.521 26.8527 98.1159 21.5223 91.5319C16.1957 84.948 10.791 78.1927 5.31177 71.2477" stroke="#E9F1FF" stroke-width="0.377333" stroke-miterlimit="10"/>
<path d="M401.713 687.365C401.244 679.427 400.634 671.722 399.908 664.226C399.179 656.731 398.33 649.443 397.366 642.349C396.402 635.255 395.326 628.355 394.154 621.63C392.977 614.904 391.708 608.361 390.346 601.971C388.983 595.58 387.524 589.35 385.987 583.261C384.449 577.176 382.827 571.228 381.133 565.415C379.439 559.605 377.667 553.922 375.829 548.357C373.99 542.797 372.088 537.352 370.119 532.015C368.146 526.678 366.117 521.445 364.029 516.312C361.937 511.176 359.797 506.14 357.597 501.187C355.401 496.233 353.141 491.361 350.837 486.571C348.533 481.781 346.181 477.069 343.78 472.42C341.375 467.775 338.922 463.197 336.428 458.679C333.934 454.157 331.396 449.695 328.816 445.288C326.237 440.881 323.616 436.527 320.947 432.213C318.278 427.903 315.565 423.642 312.818 419.413C310.071 415.185 307.279 410.991 304.446 406.83C301.614 402.669 298.747 398.534 295.837 394.429C292.922 390.323 289.97 386.241 286.981 382.176C283.989 378.112 280.955 374.063 277.88 370.028C274.809 365.994 271.705 361.974 268.552 357.954C265.396 353.938 262.194 349.919 258.952 345.907C255.714 341.891 252.435 337.879 249.111 333.859C245.783 329.836 242.41 325.809 238.997 321.77C235.584 317.728 232.118 313.672 228.612 309.596C225.106 305.521 221.558 301.427 217.955 297.307C214.352 293.187 210.697 289.04 206.989 284.861C203.289 280.681 199.537 276.472 195.729 272.221C191.925 267.971 188.061 263.683 184.149 259.344C180.237 255.008 176.28 250.616 172.253 246.176C168.229 241.735 164.146 237.239 160.003 232.68C155.863 228.121 151.665 223.502 147.406 218.809C143.144 214.119 138.834 209.352 134.449 204.506C130.064 199.66 125.627 194.736 121.116 189.719C116.604 184.698 112.033 179.588 107.392 174.374C102.75 169.163 98.045 163.856 93.2693 158.429C88.4936 153.003 83.6398 147.457 78.7263 141.792C73.8092 136.124 68.8362 130.329 63.785 124.396C58.7302 118.464 53.6009 112.386 48.4083 106.156C43.2119 99.9288 37.9523 93.5458 32.6183 86.9879C27.2805 80.43 21.8683 73.7046 16.3854 66.7856" stroke="#E9F1FF" stroke-width="0.377333" stroke-miterlimit="10"/>
<path d="M413.393 681.016C413.132 673.055 412.719 665.332 412.172 657.821C411.621 650.31 410.943 643.015 410.132 635.91C409.32 628.809 408.379 621.901 407.337 615.168C406.294 608.439 405.137 601.878 403.879 595.483C402.62 589.089 401.269 582.855 399.821 576.766C398.37 570.677 396.828 564.741 395.206 558.931C393.586 553.121 391.889 547.442 390.106 541.881C388.327 536.324 386.458 530.883 384.53 525.55C382.606 520.216 380.61 514.991 378.556 509.866C376.497 504.737 374.376 499.713 372.194 494.766C370.013 489.824 367.776 484.963 365.483 480.184C363.19 475.405 360.838 470.704 358.437 466.071C356.04 461.437 353.587 456.87 351.085 452.367C348.584 447.86 346.03 443.419 343.436 439.024C340.841 434.632 338.191 430.289 335.504 425.994C332.82 421.702 330.091 417.456 327.315 413.243C324.538 409.033 321.716 404.857 318.858 400.715C315.995 396.576 313.095 392.463 310.147 388.377C307.199 384.29 304.207 380.226 301.177 376.184C298.143 372.138 295.076 368.115 291.96 364.099C288.845 360.083 285.677 356.082 282.476 352.085C279.275 348.088 276.025 344.101 272.735 340.108C269.444 336.118 266.116 332.128 262.733 328.131C259.353 324.13 255.928 320.129 252.459 316.109C248.986 312.09 245.465 308.066 241.899 304.017C238.333 299.968 234.723 295.9 231.064 291.806C227.401 287.712 223.693 283.588 219.93 279.438C216.171 275.284 212.352 271.093 208.488 266.873C204.624 262.648 200.705 258.387 196.733 254.077C192.761 249.767 188.726 245.413 184.643 240.998C180.559 236.588 176.428 232.122 172.229 227.592C168.03 223.063 163.772 218.474 159.458 213.81C155.144 209.147 150.766 204.413 146.329 199.596C141.892 194.78 137.388 189.882 132.825 184.895C128.261 179.908 123.649 174.827 118.959 169.647C114.273 164.47 109.519 159.184 104.703 153.791C99.8862 148.395 94.9988 142.894 90.0519 137.255C85.1049 131.62 80.091 125.855 75.0101 119.952C69.9292 114.049 64.7812 108.013 59.5663 101.816C54.3551 95.6187 49.0694 89.2655 43.7242 82.7411C38.3827 76.213 32.9779 69.5174 27.5024 62.6282" stroke="#E9F1FF" stroke-width="0.377333" stroke-miterlimit="10"/>
<path d="M424.948 674.37C424.892 666.397 424.669 658.66 424.297 651.138C423.928 643.62 423.418 636.317 422.76 629.209C422.101 622.104 421.304 615.192 420.389 608.459C419.473 601.723 418.445 595.168 417.295 588.774C416.149 582.384 414.887 576.153 413.528 570.068C412.166 563.983 410.714 558.054 409.166 552.248C407.617 546.445 405.968 540.77 404.245 535.22C402.525 529.671 400.72 524.245 398.836 518.922C396.953 513.604 394.999 508.389 392.974 503.276C390.949 498.162 388.857 493.145 386.698 488.217C384.539 483.289 382.313 478.447 380.031 473.683C377.746 468.919 375.401 464.233 373.004 459.618C370.603 455.003 368.146 450.455 365.637 445.97C363.132 441.485 360.579 437.06 357.969 432.687C355.36 428.314 352.706 423.996 349.996 419.724C347.29 415.451 344.528 411.219 341.725 407.028C338.922 402.841 336.082 398.691 333.19 394.571C330.294 390.451 327.361 386.368 324.376 382.308C321.394 378.247 318.364 374.205 315.293 370.186C312.222 366.166 309.111 362.169 305.95 358.179C302.794 354.193 299.589 350.218 296.339 346.246C293.09 342.279 289.784 338.315 286.446 334.351C283.107 330.388 279.727 326.42 276.295 322.453C272.867 318.481 269.39 314.506 265.865 310.52C262.336 306.53 258.767 302.533 255.148 298.514C251.527 294.494 247.849 290.456 244.13 286.391C240.412 282.327 236.649 278.241 232.83 274.117C229.007 270 225.136 265.851 221.212 261.66C217.285 257.465 213.314 253.23 209.282 248.953C205.251 244.673 201.153 240.356 197.014 235.975C192.871 231.598 188.672 227.162 184.417 222.669C180.159 218.173 175.852 213.622 171.479 208.992C167.105 204.365 162.676 199.665 158.186 194.882C153.697 190.103 149.145 185.242 144.533 180.292C139.921 175.339 135.25 170.295 130.515 165.156C125.784 160.012 120.99 154.772 116.128 149.416C111.267 144.056 106.346 138.578 101.362 132.984C96.3778 127.386 91.3378 121.662 86.2308 115.796C81.1238 109.934 75.9461 103.927 70.7163 97.7712C65.4865 91.6115 60.1934 85.2992 54.8407 78.8083C49.4918 72.3211 44.087 65.6627 38.6152 58.8144" stroke="#E9F1FF" stroke-width="0.377333" stroke-miterlimit="10"/>
<path d="M436.36 667.408C436.516 659.428 436.49 651.69 436.3 644.168C436.114 636.647 435.753 629.341 435.25 622.235C434.748 615.13 434.104 608.223 433.322 601.494C432.54 594.764 431.625 588.218 430.586 581.831C429.551 575.444 428.394 569.221 427.132 563.147C425.866 557.073 424.482 551.152 423.004 545.36C421.53 539.569 419.967 533.916 418.299 528.381C416.635 522.843 414.878 517.432 413.043 512.124C411.208 506.821 409.284 501.625 407.288 496.53C405.297 491.434 403.235 486.436 401.095 481.527C398.958 476.618 396.754 471.798 394.484 467.056C392.213 462.314 389.876 457.655 387.478 453.058C385.085 448.465 382.617 443.94 380.108 439.477C377.596 435.015 375.038 430.615 372.418 426.268C369.798 421.921 367.121 417.634 364.396 413.387C361.672 409.136 358.887 404.938 356.066 400.773C353.241 396.612 350.371 392.485 347.449 388.395C344.527 384.304 341.553 380.244 338.538 376.209C335.519 372.178 332.463 368.17 329.351 364.18C326.239 360.194 323.083 356.219 319.882 352.263C316.68 348.306 313.427 344.369 310.129 340.427C306.831 336.489 303.496 332.559 300.109 328.629C296.718 324.699 293.282 320.768 289.798 316.831C286.314 312.897 282.781 308.948 279.204 304.995C275.627 301.039 272.009 297.079 268.332 293.096C264.658 289.11 260.924 285.109 257.146 281.082C253.372 277.055 249.553 272.994 245.674 268.912C241.795 264.829 237.861 260.712 233.878 256.559C229.891 252.405 225.871 248.211 221.784 243.971C217.693 239.732 213.547 235.448 209.348 231.109C205.149 226.769 200.884 222.373 196.573 217.918C192.263 213.467 187.9 208.945 183.474 204.36C179.045 199.771 174.56 195.114 170.015 190.377C165.473 185.635 160.869 180.815 156.209 175.906C151.548 171.001 146.832 166.002 142.053 160.899C137.27 155.8 132.438 150.601 127.54 145.286C122.645 139.971 117.687 134.534 112.669 128.981C107.651 123.428 102.578 117.752 97.4447 111.931C92.3117 106.11 87.1228 100.147 81.8744 94.0324C76.6222 87.9174 71.3254 81.646 65.9653 75.2035C60.6089 68.761 55.193 62.1472 49.7324 55.34" stroke="#E9F1FF" stroke-width="0.377333" stroke-miterlimit="10"/>
<path d="M447.614 660.137C447.982 652.157 448.153 644.423 448.146 636.905C448.138 629.387 447.949 622.088 447.602 614.991C447.256 607.893 446.761 600.989 446.114 594.271C445.462 587.553 444.658 581.021 443.731 574.649C442.804 568.277 441.751 562.069 440.575 556.014C439.402 549.955 438.111 544.044 436.711 538.272C435.311 532.499 433.808 526.864 432.203 521.348C430.603 515.833 428.902 510.44 427.111 505.158C425.324 499.877 423.441 494.707 421.479 489.634C419.521 484.562 417.485 479.589 415.371 474.706C413.257 469.823 411.061 465.029 408.801 460.314C406.546 455.594 404.227 450.957 401.833 446.394C399.443 441.827 396.983 437.331 394.47 432.898C391.954 428.466 389.378 424.096 386.747 419.779C384.115 415.465 381.427 411.2 378.68 406.983C375.937 402.77 373.142 398.598 370.294 394.466C367.443 390.335 364.547 386.252 361.595 382.195C358.643 378.135 355.636 374.112 352.587 370.114C349.535 366.113 346.438 362.135 343.293 358.182C340.144 354.226 336.946 350.292 333.7 346.373C330.458 342.45 327.179 338.545 323.836 334.641C320.497 330.741 317.099 326.848 313.667 322.955C310.231 319.062 306.743 315.165 303.211 311.268C299.678 307.371 296.101 303.467 292.468 299.555C288.839 295.64 285.158 291.713 281.428 287.768C277.702 283.823 273.916 279.859 270.086 275.869C266.252 271.883 262.37 267.871 258.439 263.829C254.505 259.787 250.526 255.715 246.487 251.603C242.448 247.49 238.346 243.337 234.2 239.138C230.053 234.944 225.862 230.705 221.603 226.409C217.349 222.118 213.031 217.771 208.668 213.357C204.302 208.947 199.88 204.469 195.402 199.928C190.924 195.388 186.372 190.78 181.779 186.087C177.185 181.394 172.547 176.618 167.839 171.758C163.13 166.897 158.365 161.943 153.541 156.893C148.717 151.838 143.83 146.687 138.894 141.421C133.955 136.154 128.97 130.776 123.919 125.272C118.872 119.767 113.769 114.132 108.613 108.363C103.454 102.591 98.2428 96.684 92.9795 90.6211C87.7125 84.5582 82.3971 78.3352 77.0332 71.9411C71.6731 65.5506 66.2721 58.9815 60.8189 52.2301" stroke="#E9F1FF" stroke-width="0.377333" stroke-miterlimit="10"/>
<path d="M458.711 652.545C459.292 644.573 459.671 636.847 459.846 629.34C460.021 621.833 460.006 614.549 459.816 607.462C459.627 600.376 459.269 593.494 458.756 586.791C458.238 580.092 457.561 573.571 456.749 567.218C455.934 560.868 454.977 554.683 453.898 548.646C452.818 542.609 451.605 536.725 450.28 530.978C448.958 525.228 447.525 519.619 445.984 514.133C444.443 508.643 442.794 503.276 441.052 498.021C439.31 492.766 437.468 487.622 435.543 482.579C433.623 477.54 431.605 472.597 429.513 467.747C427.425 462.894 425.259 458.126 423.014 453.444C420.773 448.762 418.454 444.158 416.068 439.625C413.682 435.092 411.229 430.633 408.709 426.234C406.193 421.838 403.61 417.495 400.967 413.215C398.324 408.931 395.618 404.71 392.86 400.531C390.098 396.351 387.287 392.216 384.418 388.126C381.548 384.032 378.622 379.978 375.644 375.959C372.663 371.936 369.621 367.953 366.539 363.993C363.457 360.033 360.327 356.099 357.144 352.184C353.958 348.272 350.723 344.379 347.437 340.497C344.154 336.619 340.822 332.752 337.438 328.892C334.055 325.029 330.612 321.173 327.128 317.321C323.647 313.469 320.119 309.62 316.538 305.768C312.957 301.912 309.328 298.053 305.646 294.182C301.965 290.311 298.235 286.433 294.45 282.533C290.664 278.632 286.826 274.713 282.94 270.772C279.054 266.83 275.12 262.866 271.126 258.873C267.136 254.876 263.093 250.841 258.999 246.777C254.9 242.712 250.75 238.611 246.547 234.465C242.345 230.319 238.09 226.128 233.78 221.885C229.47 217.638 225.107 213.336 220.689 208.978C216.267 204.615 211.792 200.194 207.259 195.702C202.725 191.213 198.132 186.65 193.486 182.013C188.841 177.371 184.14 172.656 179.386 167.847C174.633 163.039 169.827 158.141 164.962 153.142C160.097 148.144 155.173 143.041 150.2 137.83C145.227 132.62 140.202 127.298 135.121 121.849C130.043 116.4 124.907 110.821 119.729 105.108C114.547 99.3947 109.318 93.5439 104.039 87.5331C98.7613 81.526 93.4421 75.3626 88.0783 69.028C82.7107 62.6934 77.2948 56.1839 71.8528 49.4845" stroke="#E9F1FF" stroke-width="0.377333" stroke-miterlimit="10"/>
<path d="M469.652 644.64C470.445 636.683 471 628.971 471.361 621.479C471.722 613.991 471.882 606.722 471.852 599.658C471.822 592.594 471.603 585.731 471.223 579.053C470.84 572.376 470.3 565.878 469.596 559.555C468.897 553.227 468.04 547.072 467.058 541.064C466.071 535.057 464.94 529.199 463.693 523.479C462.446 517.762 461.08 512.183 459.602 506.727C458.121 501.27 456.539 495.937 454.841 490.715C453.148 485.493 451.346 480.387 449.459 475.377C447.572 470.371 445.588 465.462 443.522 460.646C441.46 455.834 439.312 451.103 437.082 446.458C434.852 441.814 432.541 437.247 430.162 432.751C427.78 428.259 425.327 423.841 422.807 419.479C420.287 415.12 417.7 410.829 415.046 406.59C412.392 402.347 409.682 398.156 406.905 394.017C404.125 389.879 401.289 385.796 398.393 381.743C395.5 377.693 392.556 373.685 389.548 369.706C386.545 365.731 383.481 361.786 380.366 357.871C377.25 353.952 374.086 350.062 370.866 346.191C367.646 342.321 364.371 338.48 361.043 334.646C357.719 330.813 354.347 326.983 350.922 323.172C347.494 319.361 344.014 315.557 340.485 311.753C336.956 307.949 333.383 304.146 329.75 300.338C326.117 296.531 322.432 292.719 318.698 288.897C314.965 285.078 311.187 281.245 307.349 277.397C303.515 273.548 299.622 269.677 295.683 265.788C291.741 261.899 287.755 257.983 283.709 254.042C279.663 250.097 275.568 246.122 271.418 242.11C267.267 238.097 263.061 234.052 258.803 229.958C254.548 225.864 250.238 221.725 245.872 217.534C241.505 213.343 237.087 209.1 232.609 204.798C228.135 200.495 223.605 196.13 219.023 191.697C214.441 187.261 209.799 182.757 205.109 178.175C200.415 173.594 195.654 168.934 190.852 164.181C186.051 159.432 181.204 154.594 176.295 149.655C171.389 144.716 166.43 139.676 161.42 134.525C156.414 129.378 151.348 124.112 146.237 118.726C141.126 113.341 135.971 107.829 130.771 102.179C125.571 96.5252 120.311 90.7377 115.026 84.7939C109.736 78.8501 104.398 72.7462 99.0346 66.4749C93.667 60.2036 88.2771 53.761 82.8463 47.1287" stroke="#E9F1FF" stroke-width="0.377333" stroke-miterlimit="10"/>
<path d="M480.394 636.408C481.402 628.473 482.169 620.776 482.713 613.31C483.26 605.848 483.584 598.605 483.714 591.567C483.84 584.532 483.773 577.695 483.528 571.044C483.278 564.397 482.858 557.936 482.273 551.642C481.689 545.349 480.933 539.23 480.04 533.256C479.15 527.283 478.112 521.462 476.943 515.778C475.778 510.095 474.479 504.553 473.061 499.134C471.642 493.715 470.109 488.423 468.467 483.242C466.822 478.061 465.061 472.996 463.211 468.027C461.362 463.062 459.407 458.194 457.367 453.419C455.331 448.647 453.195 443.961 450.984 439.357C448.769 434.753 446.472 430.235 444.098 425.788C441.723 421.34 439.285 416.959 436.761 412.646C434.241 408.332 431.639 404.082 428.978 399.887C426.32 395.693 423.591 391.55 420.8 387.46C418.008 383.369 415.157 379.328 412.238 375.327C409.324 371.322 406.35 367.358 403.32 363.431C400.286 359.505 397.197 355.616 394.055 351.749C390.91 347.881 387.701 344.037 384.444 340.218C381.187 336.403 377.878 332.6 374.517 328.814C371.152 325.033 367.735 321.266 364.269 317.504C360.8 313.741 357.279 309.989 353.705 306.241C350.132 302.49 346.495 298.738 342.818 294.986C339.14 291.235 335.414 287.479 331.628 283.709C327.847 279.943 324.009 276.169 320.123 272.372C316.237 268.58 312.299 264.765 308.308 260.931C304.314 257.094 300.257 253.242 296.162 249.353C292.064 245.467 287.918 241.548 283.711 237.595C279.505 233.643 275.247 229.66 270.936 225.626C266.622 221.591 262.26 217.508 257.841 213.377C253.419 209.246 248.949 205.066 244.419 200.827C239.893 196.584 235.307 192.285 230.672 187.916C226.038 183.543 221.337 179.091 216.598 174.577C211.856 170.058 207.062 165.469 202.219 160.783C197.373 156.098 192.471 151.323 187.524 146.447C182.577 141.575 177.585 136.606 172.541 131.526C167.494 126.442 162.402 121.242 157.261 115.924C152.125 110.605 146.936 105.164 141.713 99.5812C136.487 93.9984 131.216 88.2779 125.92 82.401C120.619 76.5242 115.281 70.4985 109.914 64.2979C104.543 58.0973 99.1526 51.7255 93.733 45.1675" stroke="#E9F1FF" stroke-width="0.377333" stroke-miterlimit="10"/>
<path d="M490.961 627.837C492.215 619.731 493.198 611.885 493.935 604.278C494.672 596.666 495.167 589.293 495.439 582.136C495.71 574.979 495.766 568.041 495.625 561.294C495.483 554.546 495.134 547.988 494.616 541.613C494.102 535.237 493.406 529.036 492.554 522.996C491.698 516.955 490.685 511.071 489.524 505.336C488.366 499.596 487.06 494.006 485.627 488.542C484.197 483.079 482.634 477.742 480.952 472.527C479.265 467.309 477.467 462.207 475.558 457.208C473.652 452.213 471.638 447.319 469.524 442.522C467.414 437.724 465.206 433.02 462.906 428.397C460.606 423.775 458.212 419.241 455.737 414.775C453.261 410.309 450.697 405.917 448.061 401.589C445.426 397.26 442.705 392.999 439.921 388.789C437.136 384.583 434.289 380.426 431.363 376.321C428.437 372.219 425.441 368.166 422.381 364.154C419.322 360.138 416.191 356.16 413.005 352.218C409.815 348.277 406.565 344.369 403.256 340.487C399.951 336.601 396.586 332.745 393.161 328.908C389.733 325.071 386.245 321.248 382.702 317.445C379.158 313.637 375.559 309.848 371.903 306.06C368.244 302.271 364.533 298.482 360.762 294.697C356.995 290.915 353.158 287.13 349.279 283.338C345.397 279.545 341.462 275.745 337.468 271.93C333.471 268.115 329.428 264.289 325.322 260.441C321.217 256.592 317.055 252.718 312.838 248.821C308.624 244.924 304.344 240.994 300.015 237.03C295.686 233.066 291.301 229.065 286.86 225.023C282.419 220.985 277.915 216.899 273.359 212.764C268.803 208.629 264.191 204.434 259.524 200.187C254.856 195.937 250.143 191.631 245.364 187.254C240.581 182.877 235.749 178.422 230.858 173.896C225.971 169.37 221.024 164.763 216.032 160.066C211.037 155.369 205.989 150.579 200.89 145.688C195.79 140.798 190.642 135.807 185.446 130.7C180.246 125.594 175.013 120.372 169.723 115.02C164.434 109.672 159.107 104.197 153.736 98.5732C148.368 92.9495 142.949 87.1769 137.507 81.2517C132.065 75.3264 126.597 69.2412 121.099 62.9736C115.597 56.7097 110.066 50.2635 104.523 43.6199" stroke="#E9F1FF" stroke-width="0.377333" stroke-miterlimit="10"/>
<path d="M501.317 618.935C502.791 610.866 503.99 603.057 504.917 595.491C505.844 587.92 506.506 580.588 506.942 573.476C507.377 566.36 507.578 559.463 507.575 552.76C507.571 546.057 507.362 539.551 506.964 533.22C506.562 526.893 505.967 520.737 505.207 514.745C504.448 508.753 503.521 502.92 502.442 497.233C501.362 491.546 500.13 486.005 498.756 480.593C497.387 475.181 495.879 469.9 494.249 464.734C492.615 459.568 490.854 454.525 488.985 449.582C487.113 444.64 485.129 439.805 483.045 435.063C480.956 430.318 478.76 425.669 476.475 421.106C474.189 416.54 471.803 412.055 469.335 407.648C466.868 403.241 464.322 398.906 461.682 394.637C459.043 390.368 456.311 386.166 453.516 382.019C450.72 377.873 447.85 373.779 444.906 369.734C441.962 365.692 438.954 361.694 435.872 357.738C432.79 353.785 429.622 349.874 426.41 345.996C423.198 342.114 419.926 338.261 416.583 334.443C413.244 330.621 409.838 326.828 406.373 323.05C402.907 319.276 399.382 315.525 395.798 311.78C392.213 308.04 388.577 304.311 384.877 300.585C381.177 296.863 377.421 293.145 373.602 289.427C369.786 285.709 365.897 281.987 361.966 278.261C358.039 274.536 354.063 270.806 350.021 267.062C345.975 263.318 341.866 259.552 337.708 255.774C333.55 251.992 329.336 248.196 325.063 244.366C320.794 240.537 316.468 236.673 312.083 232.784C307.699 228.895 303.258 224.964 298.761 220.997C294.265 217.026 289.712 213.017 285.104 208.953C280.496 204.889 275.825 200.776 271.101 196.604C266.381 192.428 261.609 188.196 256.778 183.894C251.946 179.591 247.066 175.218 242.13 170.767C237.195 166.319 232.203 161.789 227.163 157.171C222.119 152.552 217.031 147.844 211.891 143.035C206.75 138.226 201.561 133.317 196.328 128.293C191.098 123.268 185.823 118.128 180.504 112.862C175.189 107.595 169.829 102.199 164.439 96.6605C159.049 91.1261 153.618 85.4429 148.165 79.6033C142.712 73.7599 137.24 67.764 131.742 61.5857C126.241 55.4037 120.713 49.0468 115.185 42.4926" stroke="#E9F1FF" stroke-width="0.377333" stroke-miterlimit="10"/>
<path d="M511.47 609.693C513.168 601.669 514.56 593.905 515.68 586.383C516.8 578.861 517.649 571.581 518.248 564.517C518.848 557.453 519.194 550.608 519.328 543.957C519.462 537.306 519.376 530.842 519.093 524.566C518.811 518.291 518.334 512.199 517.671 506.262C517.009 500.326 516.157 494.553 515.155 488.926C514.158 483.295 513.004 477.809 511.697 472.457C510.387 467.101 508.935 461.879 507.353 456.773C505.768 451.67 504.059 446.683 502.224 441.803C500.385 436.92 498.435 432.149 496.369 427.471C494.307 422.788 492.14 418.196 489.866 413.692C487.595 409.189 485.217 404.771 482.753 400.427C480.289 396.084 477.735 391.819 475.096 387.613C472.457 383.407 469.732 379.265 466.925 375.182C464.119 371.099 461.242 367.08 458.282 363.101C455.323 359.122 452.278 355.192 449.174 351.303C446.069 347.417 442.894 343.572 439.652 339.761C436.41 335.946 433.105 332.169 429.732 328.417C426.36 324.662 422.921 320.94 419.422 317.233C415.919 313.529 412.357 309.837 408.731 306.164C405.109 302.49 401.421 298.832 397.676 295.177C393.931 291.526 390.127 287.882 386.263 284.235C382.4 280.591 378.476 276.94 374.497 273.289C370.518 269.634 366.487 265.971 362.389 262.302C358.294 258.628 354.14 254.944 349.934 251.237C345.724 247.533 341.458 243.808 337.133 240.056C332.808 236.301 328.423 232.523 323.986 228.708C319.545 224.893 315.052 221.049 310.504 217.156C305.951 213.266 301.351 209.336 296.686 205.353C292.022 201.371 287.299 197.329 282.527 193.235C277.755 189.145 272.927 185.002 268.047 180.782C263.164 176.561 258.231 172.27 253.244 167.904C248.256 163.538 243.223 159.098 238.135 154.565C233.05 150.032 227.921 145.409 222.743 140.686C217.562 135.967 212.336 131.143 207.069 126.208C201.802 121.273 196.486 116.219 191.137 111.041C185.792 105.864 180.417 100.568 175.001 95.1194C169.589 89.6743 164.147 84.084 158.686 78.3375C153.222 72.5872 147.735 66.6806 142.237 60.5954C136.736 54.5139 131.227 48.2537 125.71 41.7963" stroke="#E9F1FF" stroke-width="0.377333" stroke-miterlimit="10"/>
<path d="M521.412 600.11C523.333 592.134 524.922 584.426 526.236 576.96C527.547 569.491 528.578 562.27 529.341 555.262C530.104 548.254 530.606 541.461 530.878 534.87C531.15 528.278 531.198 521.881 531.031 515.669C530.863 509.457 530.487 503.424 529.925 497.551C529.363 491.678 528.604 485.965 527.684 480.397C526.765 474.832 525.678 469.417 524.435 464.128C523.192 458.84 521.792 453.681 520.255 448.642C518.721 443.606 517.061 438.689 515.263 433.873C513.461 429.061 511.544 424.349 509.505 419.738C507.465 415.126 505.306 410.612 503.046 406.179C500.791 401.746 498.431 397.395 495.974 393.123C493.517 388.846 490.964 384.644 488.321 380.513C485.678 376.378 482.954 372.306 480.139 368.298C477.325 364.286 474.429 360.333 471.455 356.429C468.481 352.525 465.425 348.661 462.299 344.85C459.172 341.035 455.974 337.261 452.706 333.525C449.438 329.784 446.095 326.077 442.689 322.396C439.284 318.719 435.811 315.072 432.275 311.439C428.738 307.81 425.139 304.196 421.472 300.601C417.81 297.006 414.08 293.421 410.291 289.845C406.505 286.268 402.656 282.699 398.748 279.129C394.839 275.56 390.868 271.995 386.84 268.418C382.813 264.845 378.722 261.265 374.579 257.673C370.432 254.078 366.23 250.479 361.968 246.85C357.71 243.225 353.388 239.581 349.014 235.911C344.637 232.238 340.204 228.542 335.711 224.813C331.218 221.08 326.669 217.321 322.061 213.513C317.457 209.709 312.793 205.857 308.077 201.96C303.364 198.067 298.6 194.118 293.775 190.114C288.951 186.113 284.068 182.052 279.136 177.921C274.204 173.79 269.227 169.591 264.191 165.319C259.158 161.042 254.085 156.688 248.955 152.247C243.826 147.807 238.633 143.278 233.415 138.652C228.196 134.025 222.937 129.295 217.636 124.456C212.332 119.614 206.994 114.672 201.623 109.595C196.251 104.515 190.828 99.304 185.397 93.9594C179.97 88.611 174.521 83.1213 169.045 77.4752C163.57 71.8292 158.076 66.0231 152.578 60.0421C147.084 54.061 141.582 47.905 136.081 41.5481" stroke="#E9F1FF" stroke-width="0.377333" stroke-miterlimit="10"/>
<path d="M531.118 590.179C533.258 582.266 535.067 574.614 536.567 567.211C538.068 559.808 539.262 552.647 540.193 545.706C541.124 538.765 541.782 532.039 542.199 525.515C542.613 518.991 542.78 512.667 542.728 506.519C542.676 500.374 542.411 494.411 541.946 488.609C541.481 482.807 540.815 477.157 539.977 471.663C539.136 466.17 538.116 460.829 536.936 455.611C535.76 450.397 534.431 445.313 532.946 440.348C531.464 435.383 529.834 430.533 528.077 425.795C526.316 421.057 524.414 416.424 522.404 411.887C520.394 407.346 518.265 402.913 516.024 398.555C513.787 394.197 511.427 389.916 508.978 385.718C506.529 381.52 503.983 377.4 501.34 373.343C498.697 369.286 495.957 365.296 493.132 361.362C490.307 357.425 487.4 353.55 484.407 349.724C481.414 345.894 478.347 342.12 475.202 338.384C472.053 334.647 468.822 330.955 465.524 327.292C462.226 323.634 458.872 320.009 455.433 316.41C451.993 312.811 448.483 309.238 444.91 305.687C441.336 302.14 437.696 298.612 433.992 295.095C430.289 291.581 426.533 288.079 422.703 284.588C418.872 281.093 414.975 277.613 411.018 274.126C407.065 270.642 403.053 267.155 398.977 263.663C394.901 260.176 390.765 256.681 386.57 253.172C382.375 249.666 378.117 246.148 373.803 242.613C369.489 239.073 365.122 235.515 360.693 231.935C356.26 228.354 351.771 224.744 347.229 221.104C342.684 217.464 338.084 213.791 333.427 210.076C328.77 206.362 324.062 202.606 319.294 198.803C314.525 194.999 309.694 191.147 304.814 187.235C299.938 183.327 295.009 179.36 290.029 175.325C285.052 171.291 280.02 167.189 274.939 163.013C269.858 158.833 264.732 154.579 259.558 150.24C254.384 145.9 249.162 141.475 243.902 136.949C238.643 132.419 233.338 127.797 228.001 123.059C222.666 118.325 217.295 113.471 211.894 108.499C206.493 103.527 201.066 98.4277 195.617 93.191C190.167 87.9506 184.695 82.5688 179.212 77.0307C173.729 71.4926 168.22 65.7981 162.723 59.925C157.229 54.0556 151.746 48.0076 146.263 41.7623" stroke="#E9F1FF" stroke-width="0.377333" stroke-miterlimit="10"/>
<path d="M540.591 579.891C543.014 571.844 545.065 564.073 546.789 556.566C548.512 549.055 549.9 541.805 550.991 534.782C552.082 527.762 552.882 520.974 553.407 514.39C553.935 507.806 554.196 501.43 554.218 495.241C554.241 489.055 554.029 483.048 553.597 477.219C553.165 471.391 552.517 465.737 551.68 460.229C550.846 454.721 549.819 449.365 548.613 444.143C547.41 438.925 546.029 433.841 544.496 428.88C542.962 423.922 541.28 419.088 539.445 414.361C537.613 409.634 535.637 405.008 533.534 400.489C531.434 395.967 529.208 391.55 526.863 387.214C524.514 382.878 522.043 378.624 519.471 374.448C516.902 370.275 514.226 366.178 511.449 362.147C508.672 358.116 505.788 354.152 502.821 350.244C499.851 346.34 496.787 342.484 493.642 338.684C490.493 334.884 487.262 331.136 483.945 327.426C480.632 323.715 477.23 320.045 473.754 316.409C470.277 312.769 466.73 309.17 463.108 305.593C459.482 302.016 455.786 298.462 452.015 294.93C448.245 291.398 444.414 287.885 440.506 284.386C436.598 280.884 432.63 277.396 428.587 273.909C424.545 270.425 420.428 266.945 416.255 263.462C412.083 259.982 407.843 256.498 403.54 253.007C399.233 249.512 394.874 246.006 390.441 242.489C386.012 238.968 381.519 235.429 376.963 231.87C372.407 228.312 367.791 224.736 363.116 221.122C358.441 217.508 353.71 213.86 348.915 210.176C344.121 206.491 339.26 202.762 334.346 198.992C329.429 195.218 324.464 191.406 319.435 187.528C314.406 183.65 309.325 179.712 304.188 175.711C299.051 171.71 293.863 167.642 288.625 163.496C283.384 159.35 278.099 155.129 272.765 150.82C267.427 146.51 262.044 142.107 256.621 137.611C251.198 133.111 245.745 128.507 240.247 123.791C234.745 119.076 229.21 114.249 223.649 109.287C218.084 104.33 212.49 99.242 206.884 94.009C201.274 88.7724 195.657 83.3905 190.022 77.845C184.39 72.2994 178.743 66.5938 173.108 60.7021C167.476 54.8104 161.848 48.7363 156.238 42.4575" stroke="#E9F1FF" stroke-width="0.377333" stroke-miterlimit="10"/>
<path d="M549.82 569.24C552.474 561.271 554.741 553.589 556.661 546.164C558.582 538.735 560.149 531.563 561.411 524.626C562.673 517.688 563.611 510.981 564.281 504.483C564.947 497.985 565.346 491.691 565.487 485.591C565.628 479.491 565.513 473.577 565.182 467.834C564.851 462.091 564.296 456.519 563.54 451.1C562.781 445.681 561.832 440.411 560.689 435.282C559.546 430.15 558.221 425.163 556.736 420.291C555.254 415.419 553.605 410.673 551.808 406.032C550.013 401.395 548.074 396.869 546.001 392.44C543.924 388.011 541.713 383.683 539.379 379.436C537.045 375.189 534.588 371.032 532.024 366.949C529.455 362.866 526.779 358.865 523.995 354.924C521.214 350.986 518.329 347.112 515.348 343.297C512.366 339.485 509.284 335.726 506.12 332.019C502.952 328.312 499.703 324.658 496.364 321.04C493.021 317.422 489.601 313.849 486.098 310.306C482.592 306.767 479.011 303.261 475.352 299.781C471.696 296.297 467.963 292.839 464.155 289.404C460.351 285.973 456.472 282.552 452.523 279.15C448.577 275.745 444.557 272.35 440.47 268.967C436.383 265.58 432.225 262.201 428.004 258.818C423.787 255.438 419.491 252.048 415.14 248.657C410.789 245.263 406.37 241.861 401.888 238.444C397.407 235.028 392.866 231.592 388.261 228.138C383.653 224.685 378.982 221.212 374.25 217.702C369.519 214.193 364.729 210.649 359.882 207.073C355.032 203.492 350.119 199.875 345.153 196.212C340.188 192.55 335.159 188.836 330.082 185.069C325.005 181.303 319.875 177.484 314.686 173.595C309.497 169.705 304.253 165.749 298.963 161.718C293.678 157.687 288.347 153.582 282.969 149.388C277.586 145.193 272.159 140.913 266.695 136.529C261.234 132.148 255.721 127.663 250.186 123.07C244.651 118.478 239.098 113.766 233.507 108.927C227.92 104.092 222.303 99.1313 216.675 94.0211C211.047 88.9147 205.411 83.6595 199.768 78.2442C194.125 72.8289 188.482 67.246 182.85 61.4846C177.218 55.7232 171.594 49.7756 166.003 43.6271" stroke="#E9F1FF" stroke-width="0.377333" stroke-miterlimit="10"/>
<path d="M558.788 558.237C561.669 550.358 564.144 542.762 566.262 535.422C568.376 528.083 570.129 521.004 571.559 514.156C572.984 507.307 574.09 500.694 574.901 494.288C575.713 487.883 576.234 481.682 576.495 475.675C576.755 469.672 576.755 463.855 576.524 458.209C576.29 452.559 575.817 447.084 575.143 441.762C574.466 436.436 573.58 431.266 572.504 426.23C571.428 421.198 570.155 416.304 568.719 411.533C567.282 406.758 565.689 402.109 563.932 397.572C562.171 393.031 560.262 388.599 558.211 384.266C556.16 379.938 553.964 375.702 551.645 371.556C549.326 367.41 546.887 363.346 544.323 359.36C541.762 355.377 539.067 351.477 536.283 347.639C533.498 343.799 530.61 340.028 527.617 336.314C524.624 332.599 521.535 328.941 518.352 325.334C515.166 321.728 511.89 318.17 508.529 314.653C505.168 311.139 501.725 307.663 498.192 304.224C494.656 300.785 491.038 297.379 487.346 294C483.649 290.621 479.89 287.275 476.045 283.94C472.203 280.609 468.28 277.293 464.286 273.991C460.296 270.694 456.235 267.407 452.103 264.125C447.971 260.842 443.769 257.567 439.499 254.291C435.233 251.016 430.897 247.737 426.494 244.451C422.09 241.164 417.627 237.874 413.093 234.569C408.563 231.261 403.951 227.929 399.291 224.587C394.631 221.241 389.922 217.873 385.139 214.479C380.352 211.081 375.509 207.653 370.603 204.191C365.701 200.726 360.732 197.22 355.71 193.673C350.693 190.123 345.623 186.535 340.49 182.884C335.361 179.236 330.172 175.526 324.934 171.759C319.697 167.989 314.4 164.155 309.063 160.247C303.729 156.339 298.35 152.353 292.923 148.282C287.496 144.21 282.024 140.056 276.522 135.802C271.017 131.544 265.475 127.194 259.906 122.727C254.337 118.261 248.739 113.679 243.122 108.975C237.505 104.267 231.87 99.4396 226.223 94.4635C220.58 89.4874 214.918 84.3698 209.268 79.0885C203.614 73.8072 197.967 68.3658 192.343 62.7458C186.715 57.1221 181.105 51.3123 175.533 45.3052" stroke="#E9F1FF" stroke-width="0.377333" stroke-miterlimit="10"/>
<path d="M567.501 546.855C570.694 538.868 573.445 531.186 575.798 523.769C578.146 516.355 580.101 509.213 581.698 502.312C583.298 495.412 584.545 488.757 585.476 482.318C586.406 475.883 587.02 469.664 587.352 463.646C587.683 457.628 587.739 451.807 587.534 446.16C587.329 440.518 586.868 435.051 586.187 429.743C585.502 424.432 584.593 419.281 583.481 414.275C582.368 409.269 581.057 404.405 579.557 399.667C578.061 394.929 576.386 390.318 574.543 385.822C572.697 381.322 570.687 376.938 568.528 372.65C566.369 368.366 564.058 364.183 561.616 360.085C559.174 355.991 556.591 351.986 553.892 348.052C551.19 344.122 548.361 340.273 545.42 336.488C542.479 332.699 539.431 328.981 536.271 325.323C533.114 321.664 529.846 318.058 526.481 314.503C523.12 310.953 519.654 307.45 516.103 303.989C512.552 300.524 508.923 297.104 505.193 293.717C501.464 290.326 497.633 286.973 493.736 283.642C489.835 280.311 485.845 277.006 481.787 273.715C477.726 270.425 473.591 267.154 469.377 263.893C465.16 260.633 460.853 257.388 456.487 254.138C452.121 250.889 447.688 247.64 443.18 244.391C438.668 241.142 434.086 237.885 429.433 234.621C424.781 231.353 420.068 228.078 415.278 224.78C410.491 221.483 405.629 218.167 400.705 214.821C395.784 211.475 390.796 208.103 385.749 204.693C380.697 201.284 375.587 197.838 370.417 194.347C365.243 190.859 360.005 187.323 354.712 183.736C349.419 180.144 344.066 176.5 338.662 172.793C333.261 169.086 327.804 165.316 322.298 161.471C316.789 157.623 311.243 153.7 305.645 149.692C300.047 145.68 294.4 141.578 288.72 137.38C283.043 133.182 277.322 128.883 271.578 124.469C265.835 120.055 260.065 115.525 254.277 110.865C248.485 106.206 242.667 101.415 236.853 96.4803C231.035 91.5413 225.221 86.4573 219.407 81.2057C213.596 75.9505 207.797 70.5314 202.02 64.9226C196.247 59.31 190.496 53.5151 184.793 47.5042" stroke="#E9F1FF" stroke-width="0.377333" stroke-miterlimit="10"/>
<path d="M575.919 535.118C579.348 527.238 582.318 519.661 584.868 512.355C587.421 505.049 589.565 498.018 591.337 491.229C593.105 484.441 594.52 477.894 595.595 471.574C596.671 465.251 597.408 459.147 597.862 453.24C598.313 447.338 598.469 441.632 598.361 436.101C598.257 430.571 597.885 425.219 597.282 420.023C596.678 414.831 595.848 409.803 594.795 404.908C593.745 400.018 592.483 395.265 591.035 390.642C589.584 386.016 587.95 381.524 586.141 377.143C584.332 372.759 582.348 368.486 580.207 364.318C578.071 360.149 575.778 356.081 573.347 352.103C570.913 348.12 568.352 344.231 565.649 340.416C562.951 336.605 560.122 332.864 557.178 329.194C554.233 325.528 551.17 321.926 547.995 318.382C544.823 314.839 541.54 311.352 538.153 307.92C534.769 304.485 531.289 301.102 527.708 297.76C524.127 294.414 520.453 291.109 516.69 287.841C512.927 284.569 509.074 281.331 505.136 278.119C501.202 274.907 497.189 271.718 493.083 268.55C488.981 265.383 484.79 262.231 480.528 259.089C476.27 255.948 471.937 252.822 467.526 249.695C463.111 246.573 458.611 243.454 454.051 240.328C449.488 237.201 444.857 234.075 440.152 230.934C435.451 227.792 430.679 224.64 425.84 221.469C420.997 218.294 416.088 215.108 411.111 211.889C406.134 208.673 401.091 205.431 395.987 202.156C390.884 198.877 385.71 195.561 380.484 192.204C375.258 188.847 369.972 185.449 364.623 181.995C359.278 178.537 353.881 175.031 348.424 171.462C342.967 167.889 337.454 164.256 331.893 160.549C326.336 156.842 320.726 153.061 315.083 149.194C309.437 145.327 303.749 141.371 298.028 137.318C292.307 133.264 286.548 129.115 280.767 124.849C274.987 120.584 269.191 116.203 263.369 111.696C257.551 107.189 251.7 102.548 245.867 97.7653C240.034 92.9827 234.198 88.055 228.38 82.9597C222.558 77.8645 216.755 72.5981 210.982 67.1493C205.209 61.7004 199.465 56.0655 193.781 50.2148" stroke="#E9F1FF" stroke-width="0.377333" stroke-miterlimit="10"/>
<path d="M584.074 522.991C587.736 515.231 590.915 507.772 593.67 500.585C596.424 493.402 598.747 486.49 600.69 479.821C602.629 473.155 604.204 466.738 605.421 460.538C606.642 454.337 607.509 448.352 608.079 442.569C608.652 436.785 608.92 431.198 608.912 425.794C608.905 420.386 608.633 415.157 608.108 410.088C607.584 405.019 606.809 400.11 605.827 395.342C604.84 390.574 603.634 385.948 602.231 381.448C600.828 376.949 599.223 372.575 597.448 368.314C595.669 364.056 593.726 359.91 591.608 355.864C589.493 351.819 587.223 347.87 584.799 344.014C582.38 340.158 579.808 336.391 577.113 332.703C574.414 329.015 571.589 325.401 568.637 321.858C565.685 318.314 562.607 314.838 559.421 311.418C556.235 308.001 552.929 304.644 549.527 301.335C546.125 298.023 542.618 294.759 539.015 291.539C535.408 288.324 531.697 285.141 527.901 281.996C524.107 278.851 520.233 275.744 516.257 272.658C512.285 269.573 508.217 266.513 504.074 263.473C499.931 260.432 495.71 257.413 491.403 254.399C487.1 251.388 482.712 248.384 478.249 245.388C473.79 242.392 469.245 239.403 464.636 236.407C460.028 233.415 455.342 230.415 450.588 227.408C445.831 224.401 441.004 221.382 436.109 218.345C431.214 215.308 426.252 212.252 421.22 209.171C416.187 206.089 411.091 202.989 405.932 199.847C400.769 196.706 395.551 193.535 390.265 190.319C384.979 187.1 379.634 183.84 374.233 180.531C368.832 177.218 363.371 173.854 357.866 170.426C352.357 167.002 346.803 163.522 341.194 159.964C335.584 156.402 329.93 152.77 324.235 149.051C318.544 145.337 312.811 141.537 307.046 137.636C301.28 133.74 295.488 129.735 289.666 125.626C283.848 121.517 278.004 117.304 272.157 112.957C266.309 108.61 260.45 104.129 254.591 99.5097C248.736 94.8909 242.884 90.1269 237.052 85.1991C231.223 80.2677 225.416 75.1687 219.646 69.8874C213.877 64.6098 208.133 59.1461 202.464 53.4703" stroke="#E9F1FF" stroke-width="0.377333" stroke-miterlimit="10"/>
<path d="M591.924 510.5C595.926 502.662 599.406 495.137 602.414 487.905C605.425 480.673 607.967 473.728 610.093 467.044C612.218 460.356 613.927 453.924 615.267 447.728C616.61 441.531 617.578 435.568 618.215 429.807C618.855 424.045 619.16 418.489 619.175 413.122C619.19 407.755 618.922 402.566 618.379 397.549C617.839 392.529 617.035 387.672 616 382.963C614.962 378.259 613.703 373.7 612.218 369.271C610.737 364.838 609.043 360.543 607.163 356.36C605.284 352.176 603.21 348.112 600.973 344.144C598.732 340.181 596.32 336.317 593.756 332.547C591.195 328.773 588.477 325.088 585.619 321.486C582.756 317.883 579.756 314.358 576.629 310.901C573.499 307.443 570.242 304.056 566.866 300.725C563.486 297.394 559.991 294.119 556.384 290.896C552.777 287.669 549.055 284.498 545.239 281.364C541.424 278.226 537.504 275.126 533.488 272.067C529.472 269.004 525.347 265.974 521.141 262.971C516.935 259.963 512.639 256.982 508.251 254.016C503.866 251.053 499.395 248.098 494.836 245.158C490.276 242.214 485.642 239.281 480.922 236.348C476.198 233.415 471.396 230.479 466.52 227.542C461.64 224.602 456.697 221.658 451.665 218.695C446.636 215.736 441.525 212.763 436.347 209.763C431.17 206.767 425.929 203.741 420.617 200.689C415.301 197.633 409.919 194.544 404.473 191.421C399.028 188.295 393.519 185.128 387.946 181.908C382.374 178.693 376.742 175.421 371.058 172.094C365.374 168.763 359.635 165.368 353.843 161.903C348.051 158.438 342.21 154.906 336.329 151.281C330.448 147.66 324.53 143.949 318.574 140.145C312.622 136.338 306.629 132.441 300.621 128.422C294.614 124.402 288.595 120.263 282.557 116.002C276.519 111.736 270.467 107.348 264.429 102.8C258.392 98.2558 252.358 93.5588 246.358 88.6943C240.357 83.8299 234.376 78.7942 228.453 73.5687C222.528 68.3395 216.661 62.9167 210.858 57.2744" stroke="#E9F1FF" stroke-width="0.377333" stroke-miterlimit="10"/>
<path d="M599.478 497.606C603.725 489.91 607.414 482.533 610.63 475.446C613.846 468.36 616.582 461.556 618.879 455.013C621.175 448.47 623.044 442.18 624.526 436.129C626.011 430.073 627.109 424.256 627.868 418.64C628.628 413.023 629.052 407.612 629.167 402.39C629.279 397.165 629.085 392.129 628.624 387.253C628.162 382.378 627.436 377.666 626.457 373.103C625.478 368.54 624.25 364.118 622.817 359.831C621.38 355.547 619.731 351.393 617.881 347.355C616.031 343.313 613.995 339.394 611.777 335.571C609.555 331.749 607.154 328.027 604.596 324.395C602.039 320.766 599.322 317.234 596.459 313.773C593.601 310.311 590.601 306.928 587.459 303.612C584.321 300.299 581.053 297.054 577.658 293.868C574.263 290.678 570.742 287.552 567.113 284.47C563.48 281.392 559.743 278.363 555.894 275.374C552.045 272.382 548.088 269.427 544.035 266.509C539.985 263.594 535.816 260.706 531.572 257.844C527.325 254.986 522.989 252.15 518.559 249.328C514.126 246.507 509.603 243.708 504.999 240.913C500.395 238.122 495.708 235.334 490.936 232.55C486.164 229.766 481.321 226.986 476.389 224.198C471.454 221.411 466.447 218.616 461.363 215.809C456.274 212.999 451.111 210.178 445.878 207.335C440.648 204.491 435.355 201.629 429.984 198.73C424.609 195.834 419.163 192.905 413.658 189.939C408.156 186.972 402.584 183.961 396.959 180.906C391.331 177.85 385.647 174.746 379.904 171.582C374.16 168.415 368.372 165.188 362.532 161.894C356.688 158.601 350.792 155.236 344.866 151.782C338.936 148.332 332.962 144.8 326.965 141.167C320.969 137.535 314.939 133.806 308.89 129.968C302.841 126.127 296.778 122.178 290.707 118.096C284.635 114.016 278.568 109.803 272.508 105.445C266.448 101.087 260.388 96.5795 254.377 91.9049C248.362 87.2302 242.391 82.3843 236.469 77.3487C230.543 72.3167 224.669 67.0912 218.885 61.6498" stroke="#E9F1FF" stroke-width="0.377333" stroke-miterlimit="10"/>
<path d="M580.791 258.192C567.323 250.789 554.392 243.807 541.956 237.212C529.524 230.62 517.575 224.409 506.077 218.55C494.579 212.688 483.52 207.184 472.874 201.992C462.224 196.796 451.984 191.913 442.113 187.324C432.241 182.735 422.738 178.429 413.563 174.383C404.388 170.341 395.551 166.556 387.012 163.009C378.473 159.462 370.243 156.15 362.281 153.053C354.319 149.956 346.629 147.076 339.192 144.388C331.754 141.701 324.555 139.2 317.591 136.885C310.627 134.57 303.882 132.43 297.346 130.454C290.805 128.474 284.466 126.661 278.313 124.994C272.164 123.326 266.194 121.808 260.394 120.42C254.591 119.035 248.959 117.785 243.469 116.657C237.979 115.529 232.637 114.524 227.43 113.635C222.226 112.741 217.152 111.964 212.198 111.29C207.244 110.62 202.42 110.051 197.692 109.578C192.969 109.105 188.334 108.726 183.812 108.439C179.286 108.149 174.856 107.948 170.508 107.832C166.161 107.717 161.895 107.68 157.7 107.721C153.505 107.765 149.384 107.881 145.323 108.071C141.262 108.26 137.272 108.521 133.323 108.848C129.377 109.176 125.48 109.567 121.627 110.021C117.771 110.479 113.97 110.996 110.192 111.569C106.418 112.142 102.662 112.771 98.9435 113.456C95.225 114.141 91.525 114.885 87.8399 115.674C84.1586 116.463 80.4959 117.301 76.8294 118.187C73.1667 119.072 69.5114 120.003 65.8449 120.978C62.1822 121.953 58.5083 122.969 54.827 124.022C51.1456 125.076 47.4568 126.166 43.7345 127.294C40.0122 128.418 36.2601 129.583 32.4708 130.774C28.6852 131.961 24.8513 133.182 20.9801 134.425C17.1089 135.672 13.1968 136.941 9.21023 138.229C5.22738 139.517 1.18871 140.83 -2.93187 142.152C-7.05617 143.469 -11.2624 144.798 -15.5542 146.138C-19.846 147.474 -24.2271 148.817 -28.7199 150.157C-33.2128 151.497 -37.8284 152.837 -42.5631 154.162C-47.2942 155.487 -52.1555 156.797 -57.1695 158.089C-62.1797 159.376 -67.3499 160.646 -72.6914 161.874C-78.0292 163.106 -83.5344 164.297 -89.2482 165.439C-94.9619 166.582 -100.88 167.676 -107.022 168.703" stroke="#E9F1FF" stroke-width="0.377333" stroke-miterlimit="10"/>
<path d="M577.061 248.021C563.68 240.488 550.834 233.383 538.491 226.677C526.144 219.966 514.3 213.646 502.895 207.68C491.493 201.718 480.531 196.109 469.982 190.82C459.433 185.535 449.29 180.566 439.515 175.896C429.74 171.221 420.327 166.844 411.252 162.728C402.181 158.611 393.444 154.755 385.006 151.149C376.571 147.539 368.434 144.17 360.577 141.018C352.715 137.869 345.136 134.948 337.804 132.216C330.467 129.484 323.38 126.949 316.516 124.597C309.652 122.245 303.011 120.079 296.575 118.073C290.143 116.067 283.916 114.232 277.867 112.546C271.818 110.86 265.96 109.33 260.261 107.931C254.558 106.535 249.027 105.273 243.644 104.142C238.258 103.014 233.017 102.009 227.914 101.12C222.811 100.234 217.841 99.4634 212.991 98.8009C208.145 98.1384 203.421 97.5802 198.798 97.1261C194.175 96.672 189.653 96.3184 185.227 96.0542C180.805 95.7899 176.487 95.615 172.24 95.5294C167.996 95.4438 163.827 95.4512 159.74 95.5331C155.649 95.6113 151.633 95.7713 147.676 96.0095C143.716 96.244 139.818 96.5566 135.977 96.9363C132.136 97.3159 128.343 97.7663 124.591 98.2836C120.842 98.7972 117.135 99.3778 113.461 100.022C109.787 100.666 106.143 101.365 102.529 102.128C98.9104 102.888 95.311 103.714 91.7302 104.585C88.1493 105.459 84.5908 106.386 81.0286 107.365C77.4663 108.344 73.9078 109.371 70.3455 110.45C66.7833 111.526 63.2285 112.65 59.6477 113.819C56.0668 114.987 52.4636 116.201 48.8456 117.447C45.2238 118.698 41.5759 119.997 37.8871 121.322C34.2021 122.643 30.4835 124.005 26.7091 125.397C22.9384 126.789 19.1193 128.215 15.2333 129.663C11.3509 131.11 7.39787 132.581 3.37407 134.073C-0.649731 135.565 -4.75175 137.08 -8.94677 138.606C-13.1418 140.128 -17.441 141.666 -21.8408 143.21C-26.2368 144.751 -30.7408 146.299 -35.3825 147.844C-40.0242 149.392 -44.7962 150.929 -49.7208 152.455C-54.6416 153.981 -59.7225 155.5 -64.9747 156.985C-70.2306 158.47 -75.6502 159.932 -81.2784 161.351C-86.9102 162.772 -92.7319 164.153 -98.7992 165.478" stroke="#E9F1FF" stroke-width="0.377333" stroke-miterlimit="10"/>
<path d="M573.19 237.998C559.898 230.334 547.149 223.106 534.899 216.277C522.649 209.451 510.886 203.023 499.578 196.953C488.27 190.882 477.423 185.173 466.974 179.791C456.522 174.41 446.472 169.359 436.798 164.602C427.127 159.846 417.818 155.387 408.847 151.2C399.873 147.009 391.255 143.097 382.925 139.428C374.591 135.754 366.547 132.323 358.793 129.122C351.04 125.917 343.565 122.94 336.333 120.163C329.104 117.391 322.125 114.815 315.365 112.429C308.609 110.044 302.08 107.84 295.753 105.808C289.425 103.776 283.298 101.919 277.357 100.21C271.42 98.5058 265.661 96.9575 260.071 95.5507C254.48 94.1401 249.049 92.8747 243.771 91.7395C238.492 90.6006 233.363 89.5994 228.368 88.7136C223.373 87.8278 218.519 87.0685 213.773 86.4135C209.031 85.7622 204.4 85.2188 199.881 84.7796C195.362 84.3404 190.959 84.0092 186.645 83.771C182.33 83.5291 178.106 83.3913 173.967 83.3355C169.827 83.2834 165.766 83.3169 161.783 83.436C157.797 83.5514 153.892 83.7524 150.04 84.0352C146.187 84.3144 142.398 84.6754 138.661 85.1071C134.923 85.5389 131.227 86.0488 127.583 86.6256C123.943 87.1988 120.339 87.8464 116.77 88.5573C113.2 89.2682 109.668 90.046 106.154 90.8835C102.644 91.7209 99.1558 92.6178 95.6829 93.5781C92.2063 94.5383 88.7409 95.5581 85.2829 96.6337C81.8249 97.7056 78.3706 98.8334 74.9163 100.013C71.4583 101.193 68.0003 102.421 64.5274 103.702C61.0507 104.982 57.5592 106.311 54.038 107.684C50.5204 109.057 46.9805 110.475 43.3996 111.934C39.8188 113.393 36.197 114.897 32.5305 116.434C28.8641 117.971 25.1455 119.546 21.3599 121.15C17.5743 122.757 13.7143 124.399 9.79476 126.063C5.87147 127.726 1.87371 129.423 -2.22454 131.135C-6.32278 132.847 -10.5104 134.574 -14.8133 136.32C-19.1163 138.066 -23.5235 139.826 -28.0647 141.586C-32.6096 143.351 -37.2886 145.118 -42.1201 146.883C-46.9516 148.647 -51.932 150.404 -57.0949 152.149C-62.2577 153.891 -67.5992 155.622 -73.1454 157.319C-78.6879 159.016 -84.4351 160.676 -90.4169 162.302" stroke="#E9F1FF" stroke-width="0.377333" stroke-miterlimit="10"/>
<path d="M569.169 228.147C555.631 220.153 542.67 212.624 530.231 205.519C517.791 198.414 505.876 191.733 494.43 185.439C482.984 179.142 472.003 173.231 461.454 167.667C450.908 162.103 440.776 156.896 431.039 151.994C421.298 147.093 411.955 142.504 402.95 138.201C393.946 133.902 385.292 129.894 376.95 126.139C368.612 122.387 360.594 118.892 352.852 115.636C345.11 112.379 337.65 109.357 330.448 106.551C323.249 103.744 316.299 101.158 309.588 98.7607C302.873 96.3638 296.396 94.1605 290.12 92.1395C283.848 90.1148 277.792 88.2687 271.915 86.5902C266.033 84.9116 260.346 83.3931 254.826 82.0272C249.302 80.6613 243.949 79.4479 238.745 78.3686C233.545 77.2893 228.494 76.3476 223.577 75.5363C218.663 74.7212 213.888 74.0289 209.227 73.4557C204.567 72.8863 200.022 72.4359 195.589 72.0898C191.152 71.7474 186.827 71.5092 182.594 71.3752C178.358 71.2412 174.219 71.2115 170.162 71.2747C166.105 71.338 162.126 71.4906 158.221 71.7362C154.312 71.9819 150.475 72.3206 146.697 72.7411C142.918 73.158 139.207 73.6567 135.541 74.2373C131.874 74.8217 128.253 75.4842 124.672 76.2174C121.091 76.9506 117.547 77.7657 114.033 78.6477C110.516 79.5298 107.032 80.4752 103.563 81.495C100.093 82.5147 96.6504 83.5978 93.211 84.7479C89.7716 85.8979 86.3433 87.115 82.9114 88.3916C79.4794 89.6682 76.04 90.9969 72.5932 92.3888C69.1463 93.7845 65.6883 95.2361 62.2042 96.7397C58.7164 98.2433 55.2063 99.8102 51.6627 101.418C48.1191 103.026 44.5345 104.682 40.9016 106.387C37.2686 108.091 33.591 109.844 29.8426 111.638C26.098 113.429 22.2789 115.263 18.3891 117.132C14.4993 119.004 10.5351 120.909 6.46661 122.849C2.39815 124.784 -1.76707 126.749 -6.04399 128.74C-10.3246 130.731 -14.7206 132.745 -19.2544 134.773C-23.7881 136.802 -28.4634 138.841 -33.2949 140.892C-38.1227 142.939 -43.1106 145.001 -48.292 147.048C-53.4698 149.095 -58.8373 151.138 -64.4207 153.163C-70.0042 155.184 -75.8072 157.19 -81.856 159.163" stroke="#E9F1FF" stroke-width="0.377333" stroke-miterlimit="10"/>
<path d="M565.008 218.473C551.57 210.34 538.71 202.681 526.37 195.453C514.034 188.229 502.224 181.429 490.882 175.024C479.54 168.618 468.667 162.604 458.226 156.939C447.789 151.278 437.772 145.974 428.146 140.987C418.52 136 409.282 131.329 400.389 126.956C391.5 122.579 382.954 118.496 374.728 114.677C366.501 110.859 358.584 107.308 350.957 103.996C343.33 100.683 335.993 97.6126 328.906 94.7617C321.823 91.907 314.985 89.2719 308.389 86.8378C301.789 84.4074 295.424 82.1743 289.267 80.1236C283.111 78.0728 277.151 76.2082 271.389 74.511C265.627 72.8101 260.059 71.2767 254.654 69.8959C249.249 68.5151 244.008 67.2943 238.92 66.2112C233.835 65.1282 228.899 64.1828 224.098 63.3752C219.296 62.5638 214.632 61.879 210.083 61.3207C205.538 60.7587 201.105 60.3195 196.787 59.9957C192.469 59.6719 188.263 59.4561 184.146 59.3481C180.026 59.2402 175.994 59.2365 172.052 59.3332C168.107 59.43 164.239 59.6235 160.443 59.9101C156.65 60.2004 152.931 60.5801 149.268 61.0453C145.602 61.5143 141.999 62.0614 138.444 62.6978C134.889 63.338 131.379 64.0637 127.91 64.8639C124.444 65.6641 121.009 66.5388 117.606 67.4953C114.204 68.4481 110.839 69.4753 107.486 70.577C104.132 71.6787 100.789 72.8473 97.4651 74.0867C94.1374 75.3298 90.8245 76.6362 87.5079 78.0133C84.1877 79.3866 80.8599 80.827 77.521 82.3306C74.1859 83.8343 70.8433 85.3974 67.4709 87.0239C64.0985 88.6466 60.7074 90.3326 57.2718 92.0745C53.8361 93.8163 50.3595 95.614 46.8382 97.4637C43.3169 99.3135 39.7398 101.219 36.1031 103.169C32.4701 105.116 28.7665 107.115 24.9883 109.154C21.2065 111.194 17.3427 113.285 13.3859 115.407C9.42541 117.528 5.38301 119.691 1.21032 121.883C-2.96237 124.079 -7.26163 126.297 -11.6912 128.545C-16.117 130.793 -20.6879 133.071 -25.4152 135.356C-30.1463 137.645 -35.0374 139.949 -40.1183 142.256C-45.2029 144.564 -50.4663 146.875 -55.953 149.179C-61.4434 151.483 -67.1496 153.779 -73.109 156.053" stroke="#E9F1FF" stroke-width="0.377333" stroke-miterlimit="10"/>
<path d="M560.719 208.98C547.385 200.707 534.629 192.921 522.398 185.566C510.166 178.216 498.463 171.3 487.233 164.783C475.999 158.263 465.242 152.144 454.909 146.382C444.579 140.621 434.682 135.221 425.168 130.144C415.653 125.067 406.526 120.322 397.749 115.867C388.968 111.416 380.537 107.262 372.423 103.376C364.308 99.4944 356.525 95.8842 349.013 92.5159C341.502 89.1439 334.277 86.0138 327.308 83.1145C320.34 80.2152 313.618 77.5429 307.137 75.0716C300.657 72.5965 294.407 70.3299 288.366 68.2494C282.325 66.1726 276.499 64.2819 270.852 62.5624C265.206 60.8392 259.741 59.2871 254.452 57.8952C249.163 56.5032 244.048 55.2675 239.079 54.177C234.11 53.0903 229.289 52.1486 224.603 51.341C219.917 50.5333 215.379 49.8485 210.946 49.2977C206.516 48.7468 202.195 48.33 197.992 48.0211C193.79 47.7121 189.695 47.5149 185.69 47.4293C181.685 47.3474 177.769 47.3809 173.943 47.5075C170.112 47.634 166.364 47.861 162.683 48.1848C159.005 48.5124 155.409 48.9367 151.862 49.4503C148.315 49.9639 144.827 50.5668 141.384 51.2628C137.941 51.9551 134.542 52.7367 131.188 53.5964C127.838 54.4562 124.522 55.4052 121.239 56.4288C117.952 57.456 114.699 58.5539 111.46 59.7338C108.222 60.9136 104.998 62.1716 101.79 63.5003C98.581 64.8327 95.3761 66.2321 92.1712 67.706C88.9663 69.1799 85.7577 70.7244 82.5379 72.336C79.3181 73.9476 76.0872 75.6298 72.8302 77.3754C69.5732 79.121 66.279 80.9298 62.9587 82.8019C59.6421 84.674 56.2809 86.6056 52.8713 88.5968C49.4616 90.588 46.0111 92.6462 42.4861 94.7528C38.9648 96.8594 35.369 99.0106 31.7026 101.221C28.0361 103.436 24.2878 105.699 20.4389 108.01C16.5864 110.318 12.6407 112.67 8.576 115.063C4.51125 117.456 0.323654 119.89 -3.99793 122.358C-8.31951 124.822 -12.7825 127.327 -17.4056 129.85C-22.0324 132.373 -26.8193 134.927 -31.7997 137.491C-36.7801 140.052 -41.9467 142.635 -47.3365 145.218C-52.7301 147.8 -58.3359 150.383 -64.2023 152.959" stroke="#E9F1FF" stroke-width="0.377333" stroke-miterlimit="10"/>
<path d="M556.312 199.696C542.737 191.062 529.772 182.944 517.358 175.292C504.945 167.644 493.085 160.46 481.721 153.702C470.357 146.939 459.492 140.593 449.077 134.634C438.665 128.672 428.697 123.1 419.131 117.871C409.568 112.642 400.411 107.759 391.619 103.188C382.827 98.6217 374.396 94.3639 366.293 90.3964C358.189 86.4252 350.414 82.748 342.932 79.3239C335.45 75.8998 328.255 72.7325 321.335 69.8034C314.415 66.8743 307.767 64.1871 301.346 61.7083C294.925 59.2333 288.754 56.9741 282.791 54.9085C276.824 52.8429 271.065 50.9745 265.504 49.2885C259.943 47.6025 254.572 46.0951 249.372 44.7553C244.176 43.4154 239.154 42.243 234.278 41.2232C229.406 40.1997 224.682 39.3325 220.096 38.603C215.506 37.8773 211.047 37.2929 206.718 36.8389C202.389 36.3885 198.19 36.0573 194.085 35.8563C189.983 35.659 185.981 35.592 182.077 35.6293C178.172 35.6702 174.364 35.8265 170.631 36.0908C166.897 36.3513 163.245 36.7272 159.661 37.2036C156.08 37.68 152.555 38.2569 149.097 38.9306C145.635 39.6079 142.233 40.3746 138.872 41.2418C135.514 42.109 132.202 43.073 128.922 44.1225C125.643 45.1721 122.404 46.3184 119.181 47.5429C115.961 48.7711 112.771 50.0812 109.585 51.4769C106.402 52.8726 103.223 54.3502 100.056 55.9097C96.8844 57.4691 93.7242 59.1068 90.5454 60.8225C87.3702 62.5383 84.1728 64.3322 80.9642 66.2043C77.7555 68.0727 74.5246 70.0192 71.2564 72.0365C67.992 74.0537 64.6754 76.1417 61.3216 78.3004C57.9641 80.4591 54.5657 82.681 51.0928 84.9737C47.6236 87.2663 44.0837 89.6334 40.4656 92.0527C36.8476 94.4756 33.1513 96.9506 29.3509 99.4889C25.5467 102.027 21.6345 104.629 17.6107 107.275C13.5869 109.925 9.44031 112.627 5.1485 115.374C0.852977 118.117 -3.58399 120.905 -8.19219 123.729C-12.8041 126.558 -17.5873 129.42 -22.5714 132.312C-27.5519 135.2 -32.7333 138.122 -38.1492 141.055C-43.5652 143.991 -49.2156 146.943 -55.1378 149.898" stroke="#E9F1FF" stroke-width="0.377333" stroke-miterlimit="10"/>
<path d="M551.798 190.62C538.33 181.84 525.477 173.585 513.179 165.803C500.88 158.017 489.137 150.703 477.891 143.825C466.643 136.943 455.9 130.493 445.608 124.43C435.312 118.368 425.463 112.695 416.019 107.373C406.58 102.051 397.546 97.0785 388.869 92.4299C380.196 87.7813 371.895 83.4527 363.915 79.4108C355.938 75.3726 348.281 71.6247 340.926 68.141C333.567 64.6573 326.502 61.4342 319.701 58.4567C312.905 55.4755 306.383 52.7436 300.092 50.2277C293.798 47.7117 287.738 45.4116 281.894 43.3162C276.054 41.2207 270.429 39.3263 264.991 37.618C259.553 35.9059 254.316 34.38 249.242 33.0252C244.165 31.6704 239.259 30.4869 234.509 29.4597C229.756 28.4324 225.159 27.5541 220.7 26.832C216.24 26.1063 211.911 25.5331 207.709 25.0865C203.503 24.6436 199.408 24.3421 195.429 24.1597C191.446 23.9774 187.579 23.9215 183.8 23.9885C180.019 24.0518 176.33 24.2416 172.719 24.5356C169.109 24.8334 165.584 25.2428 162.122 25.7601C158.664 26.2737 155.262 26.899 151.923 27.6248C148.588 28.3468 145.312 29.1731 142.077 30.0998C138.843 31.0228 135.645 32.0464 132.492 33.1629C129.336 34.2795 126.213 35.4928 123.116 36.7954C120.019 38.0981 116.944 39.4901 113.885 40.9677C110.821 42.4452 107.773 44.0084 104.728 45.6647C101.679 47.3172 98.6307 49.0627 95.5747 50.8864C92.5149 52.7064 89.4552 54.6083 86.3657 56.5958C83.2762 58.5795 80.1606 60.6489 77.0116 62.7927C73.8662 64.9365 70.68 67.1584 67.4453 69.4548C64.2106 71.7549 60.9424 74.1295 57.5886 76.5747C54.2386 79.0237 50.8178 81.5434 47.3226 84.1338C43.8236 86.7205 40.2316 89.3817 36.5503 92.1061C32.8689 94.8305 29.0833 97.6107 25.1749 100.462C21.2703 103.313 17.2353 106.219 13.0589 109.186C8.88244 112.148 4.56087 115.167 0.0643344 118.23C-4.4322 121.297 -9.09997 124.408 -13.9687 127.557C-18.8412 130.706 -23.9296 133.895 -29.2413 137.111C-34.5493 140.327 -40.103 143.568 -45.9209 146.829" stroke="#E9F1FF" stroke-width="0.377333" stroke-miterlimit="10"/>
<path d="M547.166 181.768C533.81 172.839 521.08 164.439 508.901 156.523C496.718 148.603 485.082 141.17 473.96 134.169C462.838 127.168 452.222 120.603 442.048 114.432C431.872 108.261 422.138 102.485 412.821 97.0697C403.504 91.6506 394.589 86.5926 386.043 81.8621C377.496 77.1279 369.322 72.7175 361.468 68.6086C353.618 64.4959 346.091 60.6773 338.863 57.1341C331.634 53.5872 324.699 50.3194 318.029 47.2898C311.359 44.2602 304.949 41.4688 298.781 38.9081C292.617 36.3475 286.687 34.0176 280.974 31.8887C275.26 29.7598 269.766 27.8356 264.454 26.1012C259.142 24.3668 254.028 22.8148 249.081 21.4452C244.134 20.0755 239.355 18.8845 234.728 17.8498C230.105 16.8114 225.638 15.9331 221.302 15.2111C216.965 14.4853 212.763 13.9158 208.683 13.4804C204.607 13.0449 200.643 12.7472 196.79 12.5797C192.938 12.4159 189.193 12.3824 185.538 12.4718C181.879 12.5611 178.317 12.7695 174.832 13.097C171.345 13.4283 167.942 13.8749 164.607 14.4332C161.268 14.9877 157.997 15.654 154.784 16.4281C151.572 17.1985 148.423 18.0769 145.311 19.0595C142.199 20.0383 139.128 21.1214 136.095 22.3012C133.065 23.4847 130.072 24.7651 127.098 26.1422C124.127 27.5155 121.176 28.9819 118.239 30.5451C115.302 32.1083 112.384 33.7683 109.462 35.5175C106.54 37.2631 103.618 39.098 100.688 41.0259C97.7587 42.9501 94.8106 44.9636 91.8439 47.0627C88.8773 49.1619 85.8845 51.3466 82.862 53.6169C79.8358 55.8873 76.7872 58.2432 73.6754 60.681C70.5636 63.1188 67.4034 65.6348 64.1761 68.2364C60.9489 70.8343 57.6584 73.514 54.2822 76.2682C50.9061 79.0224 47.4369 81.8547 43.8747 84.7615C40.3125 87.6682 36.6647 90.6383 32.8754 93.6828C29.0861 96.731 25.1665 99.8499 21.1055 103.028C17.0444 106.211 12.8345 109.449 8.45338 112.75C4.07596 116.047 -0.4876 119.412 -5.24469 122.818C-10.0055 126.223 -14.9673 129.677 -20.1673 133.172C-25.3711 136.667 -30.7982 140.206 -36.5157 143.768" stroke="#E9F1FF" stroke-width="0.377333" stroke-miterlimit="10"/>
<path d="M542.444 173.147C529.204 164.069 516.586 155.528 504.522 147.474C492.461 139.416 480.956 131.849 469.953 124.726C458.95 117.602 448.445 110.925 438.399 104.646C428.352 98.3636 418.756 92.4867 409.57 86.9709C400.379 81.4589 391.587 76.3041 383.167 71.488C374.748 66.6719 366.696 62.1833 358.973 57.9962C351.249 53.8129 343.853 49.9272 336.754 46.317C329.656 42.7068 322.837 39.3683 316.296 36.2866C309.756 33.2012 303.484 30.3688 297.447 27.7635C291.409 25.1582 285.61 22.7762 280.026 20.6138C274.443 18.4477 269.068 16.4975 263.887 14.7333C258.705 12.9729 253.725 11.4134 248.904 10.0251C244.084 8.63689 239.435 7.41611 234.938 6.37026C230.442 5.32814 226.109 4.44979 221.903 3.72402C217.697 2.99826 213.617 2.42137 209.668 1.99336C205.715 1.56534 201.877 1.28249 198.151 1.12989C194.425 0.981016 190.81 0.958675 187.282 1.07033C183.753 1.18199 180.325 1.42019 176.964 1.78121C173.606 2.13851 170.323 2.61491 167.114 3.20669C163.906 3.80218 160.764 4.51678 157.678 5.33559C154.593 6.15067 151.566 7.08115 148.581 8.11582C145.6 9.1505 142.666 10.2894 139.759 11.5325C136.856 12.7756 133.982 14.1266 131.135 15.5744C128.287 17.0185 125.466 18.5631 122.655 20.2082C119.845 21.8532 117.046 23.5913 114.25 25.4299C111.455 27.2685 108.659 29.2039 105.853 31.2286C103.046 33.257 100.236 35.371 97.3958 37.5818C94.5594 39.7926 91.697 42.0964 88.801 44.4896C85.9051 46.8865 82.9682 49.3727 79.9829 51.9445C76.9977 54.5163 73.9565 57.1811 70.8559 59.9316C67.7552 62.6783 64.595 65.5144 61.3417 68.4323C58.0884 71.3503 54.7458 74.3538 51.3101 77.4355C47.8707 80.521 44.3345 83.6883 40.6644 86.9337C36.9979 90.1792 33.2011 93.4991 29.263 96.8897C25.321 100.284 21.2302 103.753 16.9645 107.285C12.7025 110.817 8.26553 114.416 3.6201 118.078C-1.02532 121.737 -5.87921 125.462 -10.9676 129.236C-16.056 133.007 -21.3788 136.829 -26.9883 140.692" stroke="#E9F1FF" stroke-width="0.377333" stroke-miterlimit="10"/>
</svg>
